<svg xmlns="http://www.w3.org/2000/svg" xmlns:xlink="http://www.w3.org/1999/xlink" width="24" height="24" viewBox="0 0 24 24">
    <defs>
        <path id="a" d="M9.894 1.25L8.781.103A.332.332 0 0 0 8.542 0a.332.332 0 0 0-.239.103L3.664 4.882 1.69 2.849a.331.331 0 0 0-.478 0L.1 3.997a.352.352 0 0 0 0 .492l3.326 3.427a.332.332 0 0 0 .477 0l5.992-6.174a.357.357 0 0 0 0-.492"/>
    </defs>
    <g fill="none" fill-rule="evenodd" transform="translate(7 8)">
        <mask id="b" fill="#fff">
            <use xlink:href="#a"/>
        </mask>
        <use fill="#000" xlink:href="#a"/>
        <g fill="#40423F" mask="url(#b)">
            <path d="M-7-8h24v24H-7z"/>
        </g>
    </g>
</svg>
