<?xml version="1.0" encoding="utf-8"?>
<!-- Generator: Adobe Illustrator 16.0.0, SVG Export Plug-In . SVG Version: 6.00 Build 0)  -->
<!DOCTYPE svg PUBLIC "-//W3C//DTD SVG 1.1//EN" "http://www.w3.org/Graphics/SVG/1.1/DTD/svg11.dtd">
<svg version="1.1" id="Layer_1" xmlns="http://www.w3.org/2000/svg" xmlns:xlink="http://www.w3.org/1999/xlink" x="0px" y="0px"
	 width="22px" height="22px" viewBox="0 0 22 22" style="enable-background:new 0 0 101.803 106.799;"
	 xml:space="preserve"  focusable="false">
<style type="text/css">
<![CDATA[
	.st0{fill:transparent;stroke:#000000;stroke-width:2;stroke-miterlimit:10;}
]]>
</style>
<path d="M21.667 10.9c0-6.02-4.85-10.9-10.834-10.9C4.851 0 0 4.88 0 10.9c0 5.439 3.962 9.95 9.141 10.767V14.05h-2.75V10.9h2.75V8.497c0-2.731 1.618-4.24 4.092-4.24 1.185 0 2.424.213 2.424.213v2.682h-1.366c-1.345 0-1.764.84-1.764 1.702V10.9h3.004l-.48 3.15h-2.524v7.618c5.179-.817 9.14-5.328 9.14-10.768"></path>
</svg>