<svg width="18" height="18" viewBox="0 0 18 18" fill="none" xmlns="http://www.w3.org/2000/svg">
<path d="M16.9516 5.70135C16.9128 4.85 16.7776 4.26824 16.5797 3.75952C16.3752 3.23334 16.1018 2.7875 15.6569 2.34261C15.212 1.89772 14.7662 1.62431 14.24 1.4198C13.731 1.22229 13.1495 1.08701 12.2982 1.04827C11.4449 1.00921 11.1725 1 8.99976 1C6.82707 1 6.55461 1.00921 5.70135 1.04827C4.85 1.08701 4.26856 1.22229 3.75952 1.42012C3.23334 1.62462 2.78718 1.89804 2.34261 2.34293C1.89804 2.7875 1.62431 3.23366 1.42012 3.75952C1.22229 4.26856 1.08701 4.85 1.04827 5.70135C1.00921 6.55461 1 6.82707 1 8.99976C1 11.1725 1.00921 11.4449 1.04827 12.2982C1.08701 13.1495 1.22229 13.731 1.42012 14.24C1.62462 14.7662 1.89804 15.2123 2.34293 15.6569C2.78782 16.1018 3.23366 16.3752 3.75984 16.5797C4.26856 16.7776 4.85031 16.9128 5.70167 16.9516C6.55493 16.9906 6.82739 16.9998 9.00008 16.9998C11.1728 16.9998 11.4452 16.9906 12.2985 16.9516C13.1498 16.9128 13.7316 16.7776 14.2403 16.5797C14.7665 16.3752 15.2127 16.1018 15.6572 15.6569C16.1021 15.212 16.3755 14.7662 16.58 14.24C16.7779 13.7313 16.9131 13.1495 16.9519 12.2982C16.9909 11.4449 17.0002 11.1725 17.0002 8.99976C17.0002 6.82707 16.9903 6.55461 16.9516 5.70135ZM8.99976 13.1079C6.73085 13.1079 4.89191 11.2687 4.89191 9.00008C4.89191 6.73117 6.73117 4.89223 8.99976 4.89223C11.2684 4.89223 13.1076 6.73149 13.1076 9.00008C13.1079 11.2687 11.2687 13.1079 8.99976 13.1079ZM13.2702 5.6896C12.7399 5.6896 12.3102 5.25996 12.3102 4.72964C12.3102 4.19933 12.7399 3.76969 13.2702 3.76969C13.8005 3.76969 14.2302 4.19933 14.2302 4.72964C14.2302 5.25996 13.8002 5.6896 13.2702 5.6896Z" fill="white"/>
<path d="M8.99973 11.6662C10.4724 11.6662 11.6662 10.4724 11.6662 8.99973C11.6662 7.52708 10.4724 6.33325 8.99973 6.33325C7.52708 6.33325 6.33325 7.52708 6.33325 8.99973C6.33325 10.4724 7.52708 11.6662 8.99973 11.6662Z" fill="white"/>
</svg>
