<?xml version="1.0" encoding="utf-8"?>
<!-- Generator: Adobe Illustrator 16.0.0, SVG Export Plug-In . SVG Version: 6.00 Build 0)  -->
<!DOCTYPE svg PUBLIC "-//W3C//DTD SVG 1.1//EN" "http://www.w3.org/Graphics/SVG/1.1/DTD/svg11.dtd">
<svg version="1.1" id="Layer_1" xmlns="http://www.w3.org/2000/svg" xmlns:xlink="http://www.w3.org/1999/xlink" x="0px" y="0px" width="120px" height="30px"
	 viewBox="0 0 342 35" style="enable-background:new 0 0 101.803 106.799;"
	 xml:space="preserve"  focusable="false" class="ButtonCircleArrow-module--button--16JE5 ButtonCircleArrow-module--mirrored--1vgar Trims-module--control--C_1Q9 Trims-module--control--left--26e_1">
<style type="text/css">
</style>
<path d="M0 .1a9.7 9.7 0 007 7h11l.5.1v27.6h6.8V7.3L26 7h11a9.8 9.8 0 007-7H0zm238.6 0h-6.8v34.8H263a9.7 9.7 0 006-6.8h-30.3V0zm-52.3 6.8c3.6-1 6.6-3.8 7.4-6.9l-38.1.1v20.6h31.1v7.2h-24.4a13.6 13.6 0 00-8.7 7h39.9v-21h-31.2v-7h24zm116.2 28h6.7v-14h24.6v14h6.7v-21h-38zM85.3 7h26a9.6 9.6 0 007.1-7H78.3a9.6 9.6 0 007 7zm0 13.8h26a9.6 9.6 0 007.1-7H78.3a9.6 9.6 0 007 7zm0 14.1h26a9.6 9.6 0 007.1-7H78.3a9.6 9.6 0 007 7zM308.5 7h26a9.6 9.6 0 007-7h-40a9.6 9.6 0 007 7z" fill="var(--tds-icon--fill, #fff)"></path>
</svg>