<svg width="24" height="24" viewBox="0 0 24 24" fill="none" xmlns="http://www.w3.org/2000/svg">
<style>
.sns{fill:#787878;}
</style>
<path class="sns" fill-rule="evenodd" clip-rule="evenodd" d="M16.5191 6.05156C15.9356 6.05156 15.4614 6.52488 15.4614 7.10925C15.4614 7.69363 15.9356 8.16695 16.5191 8.16695C17.1035 8.16695 17.5768 7.69363 17.5768 7.10925C17.5768 6.52488 17.1035 6.05156 16.5191 6.05156ZM11.8141 14.7528C10.1915 14.7528 8.87639 13.4359 8.87639 11.815C8.87639 10.1915 10.1915 8.8764 11.8141 8.8764C13.4368 8.8764 14.7528 10.1915 14.7528 11.815C14.7528 13.4359 13.4368 14.7528 11.8141 14.7528ZM11.8141 7.28806C9.31441 7.28806 7.28805 9.31442 7.28805 11.815C7.28805 14.3147 9.31441 16.3401 11.8141 16.3401C14.3147 16.3401 16.341 14.3147 16.341 11.815C16.341 9.31442 14.3147 7.28806 11.8141 7.28806ZM18.9897 15.3759C18.95 16.2353 18.8064 16.7016 18.6856 17.0127C18.5252 17.4243 18.3348 17.7178 18.0263 18.0263C17.7178 18.3348 17.4243 18.5261 17.0127 18.6847C16.7024 18.8064 16.2353 18.9492 15.3759 18.9888C14.4469 19.0311 14.1684 19.0408 11.8141 19.0408C9.46078 19.0408 9.18225 19.0311 8.25324 18.9888C7.39299 18.9492 6.92672 18.8064 6.61647 18.6847C6.20485 18.5261 5.91134 18.3348 5.60284 18.0263C5.29435 17.7178 5.10308 17.4243 4.94355 17.0127C4.8228 16.7016 4.67913 16.2353 4.63946 15.3759C4.59804 14.4469 4.58834 14.1675 4.58834 11.815C4.58834 9.46078 4.59804 9.18225 4.63946 8.25324C4.67913 7.39299 4.8228 6.92672 4.94355 6.61647C5.10308 6.20397 5.29435 5.91046 5.60284 5.60284C5.91134 5.29435 6.20485 5.10308 6.61647 4.94355C6.92672 4.82191 7.39299 4.67913 8.25324 4.63946C9.18225 4.59716 9.46078 4.58834 11.8141 4.58834C14.1684 4.58834 14.4469 4.59716 15.3759 4.63946C16.2353 4.67913 16.7024 4.82191 17.0127 4.94355C17.4243 5.10308 17.7178 5.29435 18.0263 5.60284C18.3348 5.91046 18.5252 6.20397 18.6856 6.61647C18.8064 6.92672 18.95 7.39299 18.9897 8.25324C19.032 9.18225 19.0399 9.46078 19.0399 11.815C19.0399 14.1675 19.032 14.4469 18.9897 15.3759ZM20.5762 8.18093C20.533 7.24223 20.3841 6.60144 20.1663 6.04087C19.9407 5.4609 19.6393 4.96907 19.1492 4.47989C18.6591 3.98982 18.1673 3.68838 17.5882 3.46274C17.0268 3.24503 16.3869 3.09519 15.4482 3.05377C14.5086 3.01058 14.208 3 11.8141 3C9.42107 3 9.12051 3.01058 8.18093 3.05377C7.24223 3.09519 6.60144 3.24503 6.04087 3.46274C5.4609 3.68838 4.96995 3.98982 4.47989 4.47989C3.98982 4.96907 3.68838 5.4609 3.46274 6.04087C3.24503 6.60144 3.09607 7.24223 3.05377 8.18093C3.01058 9.11963 3 9.42107 3 11.815C3 14.2071 3.01058 14.5086 3.05377 15.4482C3.09607 16.386 3.24503 17.0276 3.46274 17.5873C3.68838 18.1673 3.98982 18.6591 4.47989 19.1492C4.96995 19.6393 5.4609 19.9398 6.04087 20.1655C6.60144 20.3832 7.24223 20.533 8.18093 20.5753C9.12051 20.6185 9.42107 20.6291 11.8141 20.6291C14.208 20.6291 14.5086 20.6185 15.4482 20.5753C16.3869 20.533 17.0268 20.3832 17.5882 20.1655C18.1673 19.9398 18.6591 19.6393 19.1492 19.1492C19.6393 18.6591 19.9407 18.1673 20.1663 17.5873C20.3841 17.0276 20.533 16.386 20.5762 15.4482C20.6176 14.5086 20.6282 14.2071 20.6282 11.815C20.6282 9.42107 20.6176 9.11963 20.5762 8.18093Z"/>
</svg>
