<?xml version="1.0" encoding="utf-8"?>
<!-- Generator: Adobe Illustrator 16.0.0, SVG Export Plug-In . SVG Version: 6.00 Build 0)  -->
<!DOCTYPE svg PUBLIC "-//W3C//DTD SVG 1.1//EN" "http://www.w3.org/Graphics/SVG/1.1/DTD/svg11.dtd">
<svg version="1.1" id="Layer_1" xmlns="http://www.w3.org/2000/svg" xmlns:xlink="http://www.w3.org/1999/xlink" x="0px" y="0px"
	 width="22px" height="20px" viewBox="0 0 22 20" style="enable-background:new 0 0 101.803 106.799;"
	 xml:space="preserve"  focusable="false">
<style type="text/css">
<![CDATA[
	.st0{fill:transparent;stroke:#000000;stroke-width:2;stroke-miterlimit:10;}
]]>
</style>
<path d="M6.919 19.166c8.302 0 12.842-7.052 12.842-13.168 0-.2-.004-.4-.013-.598A9.281 9.281 0 0022 3.003a8.862 8.862 0 01-2.592.73 4.632 4.632 0 001.985-2.561 8.907 8.907 0 01-2.866 1.123A4.457 4.457 0 0015.232.833c-2.493 0-4.514 2.073-4.514 4.628 0 .363.04.716.117 1.055-3.751-.193-7.078-2.035-9.305-4.835a4.705 4.705 0 00-.61 2.326c0 1.606.797 3.023 2.009 3.852A4.398 4.398 0 01.884 7.28v.06c0 2.241 1.555 4.112 3.62 4.537a4.451 4.451 0 01-2.038.079c.575 1.839 2.24 3.177 4.217 3.214A8.912 8.912 0 010 17.088a12.55 12.55 0 006.919 2.08" fill="currentColor" fill-rule="nonzero"></path>
</svg>